Coordinates
version=1
nRows=10
nColumns=40
inDegrees=yes

Units are S.I. units (second, meters, Newtons, ...)
Angles are in degrees.

endheader
time	pelvis_tilt	pelvis_list	pelvis_rotation	pelvis_tx	pelvis_ty	pelvis_tz	hip_flexion_r	hip_adduction_r	hip_rotation_r	knee_angle_r	knee_angle_r_beta	ankle_angle_r	subtalar_angle_r	mtp_angle_r	hip_flexion_l	hip_adduction_l	hip_rotation_l	knee_angle_l	knee_angle_l_beta	ankle_angle_l	subtalar_angle_l	mtp_angle_l	lumbar_extension	lumbar_bending	lumbar_rotation	arm_flex_r	arm_add_r	arm_rot_r	elbow_flex_r	pro_sup_r	wrist_flex_r	wrist_dev_r	arm_flex_l	arm_add_l	arm_rot_l	elbow_flex_l	pro_sup_l	wrist_flex_l	wrist_dev_l
     54.72000000	     -4.71893839	     -3.93843179	     -2.98245080	      0.98938437	      0.92629522	      0.50302416	     15.94052170	      3.82840093	     -7.98160963	     20.67616124	     20.67616124	     11.67379146	      0.02286291	     -3.49780230	     18.99643693	     -9.89748974	      0.55037038	     55.79647091	     55.79647091	      9.86278919	    -18.27599996	      8.72386006	     -9.16807128	      7.07882059	      1.43046676	     -1.49089590	    -16.94831001	    -11.84279612	     23.71452170	     46.65316483	      0.00000000	      0.00000000	     16.17054694	    -12.10437284	     -7.04966985	     64.26930187	     46.85045646	      0.00000000	      0.00000000
     54.74000000	     -4.37091807	     -3.95937921	     -2.34429774	      0.98782212	      0.92518051	      0.50561418	     15.83777740	      4.04728018	     -7.57944187	     21.79058794	     21.79058794	     12.38731995	     -1.79471362	     -3.42209651	     20.68292948	     -9.99670665	      1.26499689	     57.91030256	     57.91030256	     10.90030538	    -18.80404935	     11.54837572	     -9.38506099	      6.76936380	      1.25381714	      0.95681090	    -16.72435726	    -11.64470749	     23.63232813	     46.67445715	      0.00000000	      0.00000000	     15.17860754	    -11.62141024	     -6.05292954	     59.56203098	     46.72735369	      0.00000000	      0.00000000
     54.76000000	     -4.08920493	     -4.13810729	     -1.62516586	      0.98610063	      0.92358309	      0.50823453	     15.84041535	      4.35204188	     -7.66090883	     22.98729788	     22.98729788	     13.13129404	     -3.04874909	     -3.61313367	     22.51161546	    -10.39200135	      1.85390945	     59.79280405	     59.79280405	     11.43873743	    -19.11024161	     12.48904567	     -9.63224221	      6.62725510	      0.90392469	      3.17546108	    -16.55101277	    -11.65206614	     24.62365867	     46.65383687	      0.00000000	      0.00000000	     13.48574264	    -11.28725623	     -5.40886796	     56.72294567	     46.63487699	      0.00000000	      0.00000000
     54.78000000	     -3.76674563	     -4.15859816	     -0.92575763	      0.98432725	      0.92233329	      0.51075153	     15.72431789	      4.59112532	     -7.37559540	     24.02090774	     24.02090774	     13.96972149	     -4.66487288	     -2.82595686	     24.30494334	    -10.39200666	      2.58505250	     61.37726222	     61.37726222	     13.66284847	    -19.28722296	     18.35348568	     -9.77759276	      6.31055706	      1.38052705	      5.01635739	    -16.38410081	    -11.67324678	     25.44242469	     46.64101786	      0.00000000	      0.00000000	     13.79325808	    -10.40553649	     -3.74971772	     49.22984856	     46.47068698	      0.00000000	      0.00000000
     54.80000000	     -3.46185872	     -4.31054186	     -0.18501761	      0.98251651	      0.92091982	      0.51322095	     15.57019655	      4.98342709	     -7.19028913	     24.92280171	     24.92280171	     14.67748459	     -6.23851600	     -2.34255884	     25.97668069	    -10.69155337	      3.03353139	     62.23859196	     62.23859196	     14.66303365	    -19.41432460	     20.39353667	    -10.01147492	      6.13817197	      1.33171691	      7.11528688	    -16.21173295	    -11.77069032	     26.95076517	     46.59780616	      0.00000000	      0.00000000	     13.02504899	     -9.86700653	     -2.80145024	     44.17775004	     46.36575114	      0.00000000	      0.00000000
     54.82000000	     -3.20030908	     -4.43174763	      0.57114087	      0.98064381	      0.91958212	      0.51544444	     15.42698489	      5.29332367	     -7.21586989	     25.73498518	     25.73498518	     15.33980230	     -7.49296732	     -1.88666000	     27.54144751	    -10.91431054	      3.37131064	     62.40866432	     62.40866432	     15.52651487	    -19.50306451	     21.74274839	    -10.20608653	      5.92471008	      1.26667929	      9.18665721	    -15.98826715	    -11.78442300	     28.88266754	     46.52342957	      0.00000000	      0.00000000	     12.27183699	     -9.35991897	     -2.05404909	     39.19943322	     46.27638402	      0.00000000	      0.00000000
     54.84000000	     -2.98589760	     -4.54224615	      1.33049296	      0.97870691	      0.91847423	      0.51735931	     15.22216250	      5.58116062	     -7.31388059	     26.29877667	     26.29877667	     15.87085872	     -8.58549029	     -1.48738658	     28.98037186	    -11.06396645	      3.59357818	     61.85178940	     61.85178940	     16.14663186	    -19.55116480	     22.42092329	    -10.38541092	      5.71064392	      1.11354845	     11.32899485	    -15.74893669	    -11.66440710	     31.13234741	     46.42487583	      0.00000000	      0.00000000	     11.23668876	     -8.93228085	     -1.55396486	     34.95694885	     46.20345980	      0.00000000	      0.00000000
     54.86000000	     -2.87014999	     -4.56915146	      2.05444710	      0.97671568	      0.91753877	      0.51894924	     15.04062778	      5.72278440	     -7.53548080	     26.70071933	     26.70071933	     16.30032583	     -9.33665617	     -1.45139137	     30.30650980	    -11.02919956	      3.69848386	     60.59760223	     60.59760223	     16.49302164	    -19.56666395	     22.42647753	    -10.48821217	      5.41186498	      0.60295233	     13.93757700	    -15.30223973	    -11.64348717	     33.22776322	     46.35183906	      0.00000000	      0.00000000	      9.34888825	     -8.84233265	     -1.28900573	     32.60173581	     46.13882392	      0.00000000	      0.00000000
     54.88000000	     -2.82089404	     -4.57055080	      2.75479161	      0.97471275	      0.91705721	      0.52017073	     14.76631004	      5.82009286	     -7.80631835	     26.78385310	     26.78385310	     16.61606701	     -9.90262135	     -1.30703339	     31.43544850	    -10.81921631	      3.79388931	     58.64524786	     58.64524786	     16.71528960	    -19.56173738	     22.34008529	    -10.54102454	      5.11991043	      0.25477764	     16.44719222	    -14.91164230	    -11.51007411	     35.63569832	     46.25827878	      0.00000000	      0.00000000	      7.65708234	     -8.67331144	     -1.03302249	     30.05141582	     46.07790997	      0.00000000	      0.00000000
     54.90000000	     -2.88867488	     -4.54940210	      3.38348618	      0.97268369	      0.91689959	      0.52105650	     14.50219772	      5.84810856	     -8.14904340	     26.66732092	     26.66732092	     16.98409002	    -10.07971523	     -0.86602070	     32.38318123	    -10.46750180	      3.87135570	     56.04652993	     56.04652993	     16.48427112	    -19.52153912	     21.31255069	    -10.50146686	      4.84189060	      0.99515418	     17.33502635	    -15.46301002	    -10.30831527	     40.83971037	     45.97033940	      0.00000000	      0.00000000	      7.29782219	     -8.04510372	     -0.77204587	     25.59024034	     46.05306794	      0.00000000	      0.00000000
